<mxfile host="app.diagrams.net" agent="Mozilla/5.0 (Windows NT 10.0; Win64; x64) AppleWebKit/537.36 (KHTML, like Gecko) Chrome/138.0.0.0 Safari/537.36" version="28.0.7">
  <diagram name="Page-1" id="gamRS6MLA4fs2B-uqD5Q">
    <mxGraphModel grid="1" page="1" gridSize="10" guides="1" tooltips="1" connect="1" arrows="1" fold="1" pageScale="1" pageWidth="850" pageHeight="1100" math="0" shadow="0">
      <root>
        <mxCell id="0" />
        <mxCell id="1" parent="0" />
        <mxCell id="qD9gXsYjsShy9WRek7qx-5" style="edgeStyle=orthogonalEdgeStyle;rounded=0;orthogonalLoop=1;jettySize=auto;html=1;exitX=0.5;exitY=1;exitDx=0;exitDy=0;entryX=0.5;entryY=0;entryDx=0;entryDy=0;" edge="1" parent="1" source="sVo8eWBov2D_V9g_eI1e-1" target="qD9gXsYjsShy9WRek7qx-1">
          <mxGeometry relative="1" as="geometry" />
        </mxCell>
        <mxCell id="sVo8eWBov2D_V9g_eI1e-1" value="Inicio" style="rounded=1;whiteSpace=wrap;html=1;" vertex="1" parent="1">
          <mxGeometry x="321" y="70" width="80" height="30" as="geometry" />
        </mxCell>
        <mxCell id="sVo8eWBov2D_V9g_eI1e-14" value="&lt;font style=&quot;font-size: 20px;&quot;&gt;&lt;b&gt;Notas de alumnos&lt;/b&gt;&lt;/font&gt;" style="text;html=1;align=center;verticalAlign=middle;whiteSpace=wrap;rounded=0;" vertex="1" parent="1">
          <mxGeometry x="40" y="20" width="660" height="30" as="geometry" />
        </mxCell>
        <mxCell id="qD9gXsYjsShy9WRek7qx-4" style="edgeStyle=orthogonalEdgeStyle;rounded=0;orthogonalLoop=1;jettySize=auto;html=1;exitX=0.5;exitY=1;exitDx=0;exitDy=0;entryX=0.5;entryY=0;entryDx=0;entryDy=0;" edge="1" parent="1" source="qD9gXsYjsShy9WRek7qx-1" target="qD9gXsYjsShy9WRek7qx-2">
          <mxGeometry relative="1" as="geometry" />
        </mxCell>
        <mxCell id="qD9gXsYjsShy9WRek7qx-1" value="Leer nombre de alumno" style="rounded=0;whiteSpace=wrap;html=1;" vertex="1" parent="1">
          <mxGeometry x="256" y="160" width="210" height="40" as="geometry" />
        </mxCell>
        <mxCell id="qD9gXsYjsShy9WRek7qx-7" style="edgeStyle=orthogonalEdgeStyle;rounded=0;orthogonalLoop=1;jettySize=auto;html=1;exitX=1;exitY=0.5;exitDx=0;exitDy=0;entryX=0.5;entryY=0;entryDx=0;entryDy=0;" edge="1" parent="1" source="qD9gXsYjsShy9WRek7qx-2" target="qD9gXsYjsShy9WRek7qx-6">
          <mxGeometry relative="1" as="geometry" />
        </mxCell>
        <mxCell id="qD9gXsYjsShy9WRek7qx-8" value="Si" style="edgeLabel;html=1;align=center;verticalAlign=middle;resizable=0;points=[];" connectable="0" vertex="1" parent="qD9gXsYjsShy9WRek7qx-7">
          <mxGeometry x="-0.8046" y="-1" relative="1" as="geometry">
            <mxPoint x="-13" y="-16" as="offset" />
          </mxGeometry>
        </mxCell>
        <mxCell id="qD9gXsYjsShy9WRek7qx-12" style="edgeStyle=orthogonalEdgeStyle;rounded=0;orthogonalLoop=1;jettySize=auto;html=1;exitX=0.5;exitY=1;exitDx=0;exitDy=0;entryX=0.5;entryY=0;entryDx=0;entryDy=0;" edge="1" parent="1" source="qD9gXsYjsShy9WRek7qx-2" target="qD9gXsYjsShy9WRek7qx-9">
          <mxGeometry relative="1" as="geometry" />
        </mxCell>
        <mxCell id="qD9gXsYjsShy9WRek7qx-18" value="No" style="edgeLabel;html=1;align=center;verticalAlign=middle;resizable=0;points=[];" connectable="0" vertex="1" parent="qD9gXsYjsShy9WRek7qx-12">
          <mxGeometry x="-0.2093" y="-2" relative="1" as="geometry">
            <mxPoint x="-9" y="-12" as="offset" />
          </mxGeometry>
        </mxCell>
        <mxCell id="qD9gXsYjsShy9WRek7qx-2" value="¿vacío?" style="rhombus;whiteSpace=wrap;html=1;" vertex="1" parent="1">
          <mxGeometry x="286" y="234" width="150" height="80" as="geometry" />
        </mxCell>
        <mxCell id="qD9gXsYjsShy9WRek7qx-6" value="Fin" style="rounded=1;whiteSpace=wrap;html=1;" vertex="1" parent="1">
          <mxGeometry x="553" y="367.5" width="80" height="30" as="geometry" />
        </mxCell>
        <mxCell id="qD9gXsYjsShy9WRek7qx-13" style="edgeStyle=orthogonalEdgeStyle;rounded=0;orthogonalLoop=1;jettySize=auto;html=1;exitX=0.5;exitY=1;exitDx=0;exitDy=0;entryX=0.5;entryY=0;entryDx=0;entryDy=0;" edge="1" parent="1" source="qD9gXsYjsShy9WRek7qx-9" target="qD9gXsYjsShy9WRek7qx-11">
          <mxGeometry relative="1" as="geometry" />
        </mxCell>
        <mxCell id="qD9gXsYjsShy9WRek7qx-9" value="Introduce nota 1&lt;div&gt;(Comprobación de valor valido)&lt;/div&gt;" style="rounded=0;whiteSpace=wrap;html=1;" vertex="1" parent="1">
          <mxGeometry x="271.5" y="357" width="179" height="43" as="geometry" />
        </mxCell>
        <mxCell id="qD9gXsYjsShy9WRek7qx-16" style="edgeStyle=orthogonalEdgeStyle;rounded=0;orthogonalLoop=1;jettySize=auto;html=1;exitX=0.5;exitY=1;exitDx=0;exitDy=0;entryX=0.5;entryY=0;entryDx=0;entryDy=0;" edge="1" parent="1" source="qD9gXsYjsShy9WRek7qx-10" target="qD9gXsYjsShy9WRek7qx-15">
          <mxGeometry relative="1" as="geometry" />
        </mxCell>
        <mxCell id="qD9gXsYjsShy9WRek7qx-10" value="Introduce nota 3&lt;div&gt;(Comprobación de valor valido)&lt;/div&gt;" style="rounded=0;whiteSpace=wrap;html=1;" vertex="1" parent="1">
          <mxGeometry x="271.5" y="521" width="179" height="43" as="geometry" />
        </mxCell>
        <mxCell id="qD9gXsYjsShy9WRek7qx-14" style="edgeStyle=orthogonalEdgeStyle;rounded=0;orthogonalLoop=1;jettySize=auto;html=1;exitX=0.5;exitY=1;exitDx=0;exitDy=0;entryX=0.5;entryY=0;entryDx=0;entryDy=0;" edge="1" parent="1" source="qD9gXsYjsShy9WRek7qx-11" target="qD9gXsYjsShy9WRek7qx-10">
          <mxGeometry relative="1" as="geometry" />
        </mxCell>
        <mxCell id="qD9gXsYjsShy9WRek7qx-11" value="Introduce nota 2&lt;div&gt;(Comprobación de valor valido)&lt;/div&gt;" style="rounded=0;whiteSpace=wrap;html=1;" vertex="1" parent="1">
          <mxGeometry x="271.5" y="437" width="179" height="43" as="geometry" />
        </mxCell>
        <mxCell id="qD9gXsYjsShy9WRek7qx-17" style="edgeStyle=orthogonalEdgeStyle;rounded=0;orthogonalLoop=1;jettySize=auto;html=1;exitX=0.5;exitY=1;exitDx=0;exitDy=0;" edge="1" parent="1" source="qD9gXsYjsShy9WRek7qx-15">
          <mxGeometry relative="1" as="geometry">
            <mxPoint x="361" y="120" as="targetPoint" />
            <Array as="points">
              <mxPoint x="361" y="670" />
              <mxPoint x="190" y="670" />
              <mxPoint x="190" y="120" />
            </Array>
          </mxGeometry>
        </mxCell>
        <mxCell id="qD9gXsYjsShy9WRek7qx-15" value="Calcular y presenta la media" style="rounded=0;whiteSpace=wrap;html=1;" vertex="1" parent="1">
          <mxGeometry x="271.5" y="597" width="179" height="43" as="geometry" />
        </mxCell>
        <mxCell id="qD9gXsYjsShy9WRek7qx-19" style="edgeStyle=orthogonalEdgeStyle;rounded=0;orthogonalLoop=1;jettySize=auto;html=1;exitX=0.5;exitY=1;exitDx=0;exitDy=0;" edge="1" parent="1" source="qD9gXsYjsShy9WRek7qx-6" target="qD9gXsYjsShy9WRek7qx-6">
          <mxGeometry relative="1" as="geometry" />
        </mxCell>
      </root>
    </mxGraphModel>
  </diagram>
</mxfile>
